<?xml version="1.0" encoding="UTF-8" standalone="no"?>
<!-- Created with Inkscape (http://www.inkscape.org/) -->
<svg
   xmlns:svg="http://www.w3.org/2000/svg"
   xmlns="http://www.w3.org/2000/svg"
   xmlns:inkscape="http://www.inkscape.org/namespaces/inkscape"
   version="1.0"
   width="1133.8583"
   height="308.97638"
   id="svg2">
  <defs
     id="defs4">
    <inkscape:perspective
       id="perspective10" />
    <inkscape:perspective
       id="perspective2431" />
  </defs>
  <g
     transform="translate(-354.21822,-319.07478)"
     id="layer1">
    <g
       transform="translate(384.0045,35.486499)"
       id="g2434">
      <g
         transform="translate(126.32652,228.12303)"
         id="g2810">
        <path
           d="M 882.19268,263.10383 L 889.59558,263.10383 L 888.57158,268.99205 L 881.15438,268.99205 L 882.19268,263.10383"
           id="path2432"
           style="fill:#2743a0;fill-opacity:1;fill-rule:nonzero;stroke:none" />
        <path
           d="M 904.34458,266.47462 C 908.25588,266.47462 910.61678,262.17224 911.22838,258.79434 C 911.83288,255.25999 911.27108,251.21362 906.98998,251.21362 C 903.22098,251.21362 901.40758,254.5773 900.66088,258.83701 C 900.10618,261.90912 899.82178,266.47462 904.34458,266.47462 z M 909.95548,265.87727 L 909.86298,265.87727 C 909.12348,267.0222 906.61308,269.45429 902.14718,269.45429 C 895.93188,269.45429 894.20378,264.98123 895.22778,259.17835 C 896.40118,252.44389 900.36938,248.23395 906.15088,248.23395 C 910.38928,248.23395 911.99648,250.31759 912.39468,251.5123 L 912.50138,251.5123 L 914.62058,239.5723 L 919.44918,239.5723 L 914.24358,268.99205 L 909.41498,268.99205 L 909.95548,265.87727"
           id="path2444"
           style="fill:#2743a0;fill-opacity:1;fill-rule:nonzero;stroke:none" />
        <path
           d="M 937.61158,254.79064 C 937.83208,253.51059 937.29158,251.21362 933.57948,251.21362 C 929.59708,251.21362 927.99698,253.8946 927.84768,254.79064 L 937.61158,254.79064 z M 939.37518,268.77871 C 937.20628,269.16272 935.65598,269.45429 932.88258,269.45429 C 925.15248,269.45429 920.85008,265.8346 922.25818,257.86275 C 923.81558,249.16554 931.09758,248.23395 934.37588,248.23395 C 940.58418,248.23395 942.99488,251.59052 942.14868,256.37647 L 941.98508,257.35073 L 927.17918,257.35073 C 926.51788,261.1482 927.98278,266.47462 934.97328,266.47462 C 937.16358,266.47462 938.74228,266.04794 939.91568,265.74926 L 939.37518,268.77871"
           id="path2448"
           style="fill:#2743a0;fill-opacity:1;fill-rule:nonzero;stroke:none" />
        <path
           d="M 121.88748,212.39975 C 91.941534,246.78323 37.070194,271.98593 -13.399206,271.98593 C -57.276366,271.98593 -85.842746,252.93457 -90.102456,225.37801 L -21.904406,225.37801 C -10.213316,225.37801 1.9826835,219.83825 5.3321435,212.99711 C 8.6816035,206.16308 1.9186835,200.62332 -9.7795165,200.62332 L -87.947716,200.62332 C -86.703226,196.7974 -85.373396,193.36972 -83.175986,189.01045 L 18.729964,189.01045 C 30.413954,189.01045 42.617064,183.46358 45.973634,176.62955 C 49.315974,169.78842 42.553064,164.24155 30.861964,164.24155 L -65.482896,164.24155 C -34.982216,131.55057 18.018834,108.1186 66.873954,108.1186 C 108.94478,108.1186 136.92098,125.6268 142.90878,151.36285 L 196.53558,151.36285 C 189.27488,115.50021 151.04418,90.951752 93.029574,90.951752 C 10.402554,90.951752 -80.957236,140.71713 -111.03123,202.1096 C -141.11233,263.48073 -98.508106,313.25322 -15.873966,313.25322 C 26.979154,313.25322 72.150594,299.8554 109.92618,278.4075 L 121.88748,212.39975"
           id="path2452"
           style="fill:#2ea539;fill-opacity:1;fill-rule:nonzero;stroke:none" />
        <path
           d="M 728.47328,267.00797 C 728.65818,266.10483 739.99368,201.66869 739.99368,201.66869 C 741.07458,195.52447 740.93948,191.50654 739.58838,189.37313 C 737.61848,186.12324 732.80408,184.54451 724.90338,184.54451 C 717.00978,184.54451 711.67618,186.03079 708.58988,189.1029 C 706.44938,191.27187 704.92748,195.19023 703.83238,201.42691 C 703.83238,201.42691 692.46128,266.03372 692.26218,267.00086 C 692.05598,267.97512 691.11728,268.73604 690.19988,268.73604 C 689.26118,268.73604 663.04158,268.73604 662.18108,268.73604 C 661.20678,268.73604 660.49568,267.93245 660.69478,267.02931 C 660.88678,266.19017 678.21008,167.86123 678.34518,166.94387 C 678.49458,166.0265 679.51858,165.18736 680.44308,165.18736 C 681.26798,165.18736 704.83508,165.18736 705.68128,165.18736 C 706.53468,165.18736 707.30268,165.9625 707.13208,166.90831 C 706.96138,167.85412 705.93738,173.67122 705.93738,173.67122 L 709.42188,171.18224 C 716.70398,166.01228 726.33988,163.38107 738.08078,163.38107 C 753.83238,163.38107 764.36438,166.41762 769.43478,172.39118 C 773.71578,177.26247 774.88918,185.39788 772.91938,196.59117 C 772.91938,196.59117 760.66648,266.15461 760.49578,267.01509 C 760.31798,267.87556 759.25838,268.73604 758.44058,268.73604 C 757.70808,268.73604 730.86268,268.73604 729.87418,268.73604 C 728.91418,268.73604 728.28838,267.8969 728.47328,267.00797"
           id="path2456"
           style="fill:#2743a0;fill-opacity:1;fill-rule:nonzero;stroke:none" />
        <path
           d="M 319.27788,208.4885 C 319.14278,209.41298 318.16138,210.20234 317.27958,210.20234 C 316.44038,210.20234 285.69088,210.20234 284.88018,210.20234 C 283.93438,210.20234 283.33698,209.4272 283.53608,208.46716 C 283.57878,208.28227 283.59298,208.1756 283.61428,208.1116 C 283.59298,208.18982 283.57878,208.26093 283.56458,208.34627 C 283.56458,208.34627 283.67118,207.81292 283.61428,208.1116 C 285.16458,200.70155 286.62958,195.89426 288.06608,193.51195 C 291.51508,187.56684 297.59528,184.54451 306.15738,184.54451 C 314.23588,184.54451 319.00758,187.64507 320.34458,193.84618 C 320.72148,196.09338 320.37298,200.82955 319.29208,208.34627 C 319.29208,208.34627 319.40588,207.57824 319.27788,208.4885 z M 348.42738,172.91742 C 342.53918,166.43185 329.85958,163.22462 310.75128,163.38107 C 287.74608,163.53752 271.74548,168.62926 263.20468,178.49984 C 257.49428,185.01386 252.95718,197.6721 249.69308,216.14033 C 246.63518,233.51341 246.56408,245.79475 249.49398,252.69278 C 254.05948,264.0852 266.92398,269.79563 287.72468,269.62496 C 302.49498,269.48273 315.40928,268.66492 326.34658,267.2142 C 326.36788,267.2142 326.46748,267.19998 326.75188,267.17154 C 327.67638,267.0222 328.67198,266.06927 328.81418,265.18746 C 328.93508,264.41232 331.81518,248.15573 331.97878,247.2028 C 332.14948,246.24988 331.40988,245.6383 330.57068,245.77342 C 330.50668,245.77342 330.45688,245.78764 330.40718,245.79475 C 330.40008,245.79475 330.39288,245.79475 330.39288,245.79475 C 330.37158,245.79475 330.34318,245.80898 330.30758,245.80898 C 330.32178,245.80898 330.33608,245.80898 330.34318,245.80898 C 330.08718,245.84453 330.19378,245.8232 330.30758,245.80898 C 319.83258,247.52993 310.16818,248.46863 301.67008,248.46863 C 291.01728,248.46863 284.60988,247.11036 282.11378,244.32981 C 280.00178,242.06839 279.26218,237.1971 279.86668,229.45282 C 279.86668,229.36037 279.87378,229.2537 279.89508,229.0617 C 279.95908,228.05899 280.83378,227.3123 281.78668,227.3123 C 282.74678,227.3123 345.11348,227.3123 345.94548,227.3123 C 346.88418,227.3123 347.86558,226.45182 348.05758,225.57001 C 348.25668,224.69531 349.38738,219.32623 349.38738,219.32623 L 352.53058,201.46958 C 354.89868,188.02197 353.52618,178.42162 348.42738,172.91742"
           id="path2460"
           style="fill:#2743a0;fill-opacity:1;fill-rule:nonzero;stroke:none" />
        <path
           d="M 365.20308,179.20387 C 365.35958,178.27228 367.22978,167.74745 367.36498,166.92964 C 367.52138,165.95539 368.50278,165.18736 369.44148,165.18736 C 370.38728,165.18736 379.26938,165.18736 379.26938,165.18736 C 379.26938,165.18736 383.80648,139.49397 383.96288,138.57661 C 384.12648,137.65924 385.09358,136.72054 386.04648,136.5072 C 386.91408,136.30808 414.96848,130.57631 415.77208,130.40564 C 416.57568,130.24919 417.37208,130.74699 417.18718,131.7568 C 417.01658,132.76662 411.29898,165.18736 411.29898,165.18736 C 411.29898,165.18736 428.24538,165.18736 429.08458,165.18736 C 429.91658,165.18736 430.67748,165.87716 430.49258,166.9012 C 430.34328,167.75456 428.50848,178.27228 428.32358,179.21098 C 428.13158,180.15679 427.12888,180.93905 426.28268,180.93905 C 425.42928,180.93905 408.51848,180.93905 408.51848,180.93905 L 399.97058,229.38882 C 398.80428,236.05929 398.60518,240.14832 399.35898,242.23907 C 400.48968,246.53434 403.51208,248.86687 408.05618,248.86687 C 411.32748,248.86687 415.21738,247.45881 419.58378,245.12628 C 419.61928,245.10495 418.83708,245.49608 419.68328,245.06939 C 420.52958,244.64271 421.21228,244.93428 421.04158,245.85876 C 420.89938,246.65523 417.91968,263.62296 417.74188,264.56877 C 417.55698,265.5217 416.63248,266.55285 415.69378,266.80174 C 414.74798,267.05775 415.60138,266.82308 415.55868,266.83019 C 407.65088,268.94227 399.38748,270.0872 390.93208,270.0872 C 370.65038,270.0872 362.74258,258.97212 366.76758,236.12329 L 376.49598,180.93905 C 376.49598,180.93905 367.55698,180.93905 366.62538,180.93905 C 365.69378,180.93905 365.03948,180.13546 365.20308,179.20387"
           id="path2464"
           style="fill:#2743a0;fill-opacity:1;fill-rule:nonzero;stroke:none" />
        <path
           d="M 510.95068,216.62391 C 507.16738,238.05758 503.21348,242.85065 500.55378,244.59293 C 496.62838,247.16014 491.82108,248.46863 486.29548,248.46863 C 480.64908,248.46863 475.79198,246.09343 471.83098,241.39281 L 471.39718,240.86657 L 480.20818,190.92341 L 480.85528,190.39006 C 485.62708,186.51436 491.60058,184.54451 498.61948,184.54451 C 507.83588,184.54451 512.99158,189.13135 513.51788,197.77877 C 513.61738,199.02326 513.47518,202.34427 510.95068,216.62391 z M 543.88338,181.93464 C 539.88678,169.44707 529.26238,163.38107 511.39158,163.38107 C 500.26938,163.38107 492.08418,165.92694 487.03508,170.93335 L 483.03138,174.9086 C 483.03138,174.9086 490.78278,130.95322 490.95348,129.92918 C 491.14548,128.91225 490.44148,128.38601 489.57388,128.53535 C 488.70628,128.68469 460.31058,134.068 459.41458,134.24578 C 458.39758,134.43779 457.52288,135.37649 457.34508,136.34364 C 457.17448,137.24678 434.43228,266.15461 434.28298,267.01509 C 434.14788,267.86845 434.70968,268.73604 435.72658,268.73604 C 436.72928,268.73604 454.60018,268.73604 455.73088,268.73604 C 456.84018,267.79022 460.09008,260.55085 460.09008,260.55085 L 461.22798,261.518 C 467.38638,266.73774 477.09338,269.47562 490.06458,269.62496 C 509.15858,269.79563 522.64178,263.86475 531.25358,251.54074 C 536.22448,244.3227 540.20678,232.41115 543.07978,216.14033 C 545.84618,200.49532 546.10928,188.98912 543.88338,181.93464"
           id="path2468"
           style="fill:#2743a0;fill-opacity:1;fill-rule:nonzero;stroke:none" />
        <path
           d="M 616.92428,240.0061 C 615.42378,243.70401 613.11258,246.11476 610.05468,247.1388 C 607.43058,248.03483 603.60468,248.46863 598.32808,248.46863 C 582.96038,248.46863 581.13988,240.61056 582.28478,234.01832 C 584.16218,223.42238 591.24518,217.17148 602.77268,215.92699 C 608.78888,215.27275 614.46378,215.59987 619.64088,216.95103 L 620.99198,217.29949 L 616.92428,240.0061 z M 651.87668,172.72541 C 645.70398,166.5243 633.47958,163.38107 615.55888,163.38107 C 601.47128,163.38107 590.32068,164.15621 582.18528,165.63537 C 582.13548,165.6496 583.03148,165.49315 582.06438,165.66382 C 581.10428,165.8416 580.11588,166.82297 579.95228,167.7759 C 579.82428,168.62215 576.98688,184.56584 576.83748,185.48321 C 576.67398,186.39347 577.28548,187.02638 578.25268,186.82015 C 579.22688,186.61392 578.33798,186.80593 578.37358,186.79882 C 585.42088,185.36232 592.78118,184.54451 600.37618,184.54451 C 610.00498,184.54451 616.41228,185.54721 619.98928,187.65929 C 624.15658,190.41139 625.40818,195.15468 623.72278,201.7327 L 623.07568,204.20745 L 620.87818,203.24742 C 616.06378,201.14245 607.58708,200.15397 595.75378,200.30331 C 580.18698,200.45265 568.63808,203.94433 561.42008,210.65747 C 555.84478,215.82032 551.98328,224.28285 549.94228,235.8175 C 547.80178,247.93528 548.89688,256.42625 553.21348,261.11976 C 558.26258,266.92264 569.41318,269.79563 586.35958,269.62496 C 599.64368,269.47562 608.81018,266.92975 613.59618,262.0869 L 615.21048,260.44418 C 615.21048,260.44418 621.11288,267.776 621.88088,268.73604 C 623.07568,268.73604 641.75008,268.73604 642.66748,268.73604 C 643.58488,268.73604 644.53778,267.95379 644.70848,267.00086 C 644.87908,266.04083 656.55598,199.77707 656.55598,199.77707 C 658.76758,187.31795 657.17468,178.20828 651.87668,172.72541"
           id="path2472"
           style="fill:#2743a0;fill-opacity:1;fill-rule:nonzero;stroke:none" />
        <path
           d="M 833.62908,126.40194 C 833.45848,127.36197 823.18248,185.69655 823.17538,185.70366 C 823.17538,185.70366 821.78158,193.66129 821.44738,195.51025 C 821.21268,196.81874 822.45718,197.55832 823.45988,196.68362 C 825.45108,194.25864 831.28948,187.19705 831.28948,187.19705 C 831.29658,187.15438 846.36558,167.71901 847.07668,166.8372 C 847.77368,165.9625 848.93278,165.18736 850.09198,165.18736 C 851.25818,165.18736 883.78558,165.18736 884.53228,165.18736 C 885.35728,165.18736 885.45678,166.01228 884.56788,166.88698 C 883.66478,167.76167 854.52948,196.15738 854.52948,196.15738 L 844.04018,205.65106 L 848.26428,214.6185 C 848.23588,214.53316 867.55748,266.12616 867.87038,266.97953 C 868.18328,267.84712 867.67838,268.73604 866.82498,268.73604 C 865.96448,268.73604 836.42388,268.73604 835.52078,268.73604 C 834.54648,268.73604 833.57228,267.8969 833.34468,267.01509 C 833.10998,266.12616 821.29798,220.52805 820.79308,218.51553 C 820.33798,216.72347 816.63298,215.94122 815.28888,223.65705 C 814.77688,226.5016 807.82198,266.05505 807.64418,266.97953 C 807.48058,267.90401 806.53478,268.73604 805.58188,268.73604 C 804.64318,268.73604 778.85738,268.73604 777.95418,268.73604 C 776.95148,268.73604 776.37548,267.91112 776.53188,267.00797 C 776.67418,266.16172 799.99948,133.92577 800.17008,132.96573 C 800.34788,132.0057 801.25818,131.05989 802.26798,130.86077 C 803.17828,130.67587 831.34638,125.13611 832.18548,124.97966 C 833.05308,124.80899 833.80688,125.4419 833.62908,126.40194"
           id="path2476"
           style="fill:#2743a0;fill-opacity:1;fill-rule:nonzero;stroke:none" />
        <path
           d="M 194.23858,267.00797 C 194.41638,266.10483 205.75908,201.66869 205.75908,201.66869 C 206.83998,195.52447 206.71198,191.50654 205.36078,189.37313 C 203.39098,186.12324 198.58368,184.54451 190.67578,184.54451 C 182.79638,184.54451 177.45578,186.03079 174.34808,189.1029 C 172.20758,191.27187 170.69998,195.19023 169.59768,201.42691 C 169.59768,201.42691 158.24088,266.03372 158.03458,267.00086 C 157.83548,267.97512 156.90388,268.73604 155.97228,268.73604 C 155.03358,268.73604 128.80688,268.73604 127.94638,268.73604 C 126.97928,268.73604 126.26808,267.93245 126.46728,267.02931 C 126.65928,266.19017 143.97548,167.86123 144.11768,166.94387 C 144.25988,166.0265 145.28388,165.18736 146.21548,165.18736 C 147.03328,165.18736 170.60038,165.18736 171.45378,165.18736 C 172.29998,165.18736 173.08228,165.9625 172.90448,166.90831 C 172.71958,167.85412 171.70978,173.67122 171.70978,173.67122 L 175.20148,171.18224 C 182.46928,166.01228 192.11228,163.38107 203.86028,163.38107 C 219.60488,163.38107 230.14388,166.41762 235.19298,172.39118 C 239.48828,177.26247 240.65458,185.39788 238.67758,196.59117 C 238.67758,196.59117 226.42468,266.15461 226.26108,267.01509 C 226.08338,267.87556 225.03088,268.73604 224.21308,268.73604 C 223.48058,268.73604 196.64228,268.73604 195.65378,268.73604 C 194.67948,268.73604 194.06078,267.8969 194.23858,267.00797"
           id="path2480"
           style="fill:#2743a0;fill-opacity:1;fill-rule:nonzero;stroke:none" />
        <path
           d="M 122.57018,290.42572 L 143.00118,290.42572 L 142.39668,293.83207 L 127.33478,293.83207 L 125.74898,302.82084 L 140.06418,302.82084 L 139.45968,306.24141 L 125.14448,306.24141 L 123.34538,316.41778 L 138.89788,316.41778 L 138.29348,319.83124 L 117.38598,319.83124 L 122.57018,290.42572"
           id="path2484"
           style="fill:#2ea539;fill-opacity:1;fill-rule:nonzero;stroke:none" />
        <path
           d="M 159.43558,315.4933 L 159.32888,315.4933 C 158.22658,317.18581 155.58828,320.30059 150.38278,320.30059 C 144.48748,320.30059 144.25988,316.12622 144.70078,313.60879 L 147.18268,299.54961 L 152.01128,299.54961 L 150.05568,310.6149 C 149.38718,314.41949 149.02448,316.46756 152.50908,316.46756 C 156.47718,316.46756 160.01868,312.19363 160.72978,308.16148 L 162.25168,299.54961 L 167.08028,299.54961 L 163.50328,319.83124 L 158.66748,319.83124 L 159.43558,315.4933"
           id="path2488"
           style="fill:#2ea539;fill-opacity:1;fill-rule:nonzero;stroke:none" />
        <path
           d="M 175.27968,299.54961 L 180.10828,299.54961 L 179.39008,303.63154 L 179.49678,303.63154 C 180.47808,302.01726 183.13778,299.07315 188.17968,299.07315 L 187.44728,303.24752 C 183.10218,303.24752 179.14828,304.98981 178.05308,311.22648 L 176.53128,319.83124 L 171.70268,319.83124 L 175.27968,299.54961"
           id="path2492"
           style="fill:#2ea539;fill-opacity:1;fill-rule:nonzero;stroke:none" />
        <path
           d="M 199.49388,317.31382 C 204.69948,317.31382 206.16438,312.93321 206.74038,309.68331 C 207.31638,306.40497 207.38758,302.05992 202.18198,302.05992 C 196.88408,302.05992 195.46888,306.40497 194.88578,309.68331 C 194.31688,312.93321 194.18168,317.31382 199.49388,317.31382 z M 189.52378,309.68331 C 190.66868,303.20485 194.98528,299.07315 202.71538,299.07315 C 210.37428,299.07315 213.24728,303.20485 212.09528,309.68331 C 210.97168,316.08355 206.64088,320.30059 198.97478,320.30059 C 191.25188,320.30059 188.40018,316.08355 189.52378,309.68331"
           id="path2496"
           style="fill:#2ea539;fill-opacity:1;fill-rule:nonzero;stroke:none" />
        <path
           d="M 227.22118,317.31382 C 230.96888,317.31382 232.79648,313.95014 233.55028,309.68331 C 234.09078,306.62542 234.35388,302.05992 229.80258,302.05992 C 225.88418,302.05992 223.57298,306.36941 222.97568,309.73309 C 222.34988,313.31722 222.92588,317.31382 227.22118,317.31382 z M 219.94618,299.54961 L 224.78198,299.54961 L 224.23438,302.61461 L 224.34108,302.61461 C 225.13748,301.46257 227.86118,299.07315 232.04268,299.07315 C 238.20818,299.07315 239.99318,303.55331 238.97628,309.34197 C 237.77438,316.12622 233.82758,320.30059 228.03188,320.30059 C 223.79348,320.30059 222.23608,318.21696 221.79518,317.07203 L 221.68848,317.07203 L 219.59068,328.95513 L 214.76198,328.95513 L 219.94618,299.54961"
           id="path2500"
           style="fill:#2ea539;fill-opacity:1;fill-rule:nonzero;stroke:none" />
        <path
           d="M 256.10038,310.75713 C 252.29588,310.75713 248.24948,312.12251 247.78728,314.71816 C 247.50988,316.29689 248.66908,317.31382 250.11268,317.31382 C 253.44078,317.31382 256.43468,314.29859 256.86138,311.90206 L 257.06758,310.75713 L 256.10038,310.75713 z M 255.90838,317.31382 L 255.80178,317.31382 C 254.96258,318.4303 252.58738,320.30059 248.66908,320.30059 C 243.90438,320.30059 241.83498,317.99651 242.39678,314.84617 C 243.34978,309.46997 251.02998,308.20415 257.50848,308.20415 L 258.14138,304.66269 C 258.05608,302.69995 256.50578,302.05992 254.68528,302.05992 C 251.79098,302.05992 250.34018,303.55331 250.06288,305.16759 L 244.96398,305.16759 C 245.53298,301.92481 248.44858,299.07315 255.58128,299.07315 C 263.95138,299.07315 263.06958,304.06533 262.74248,305.90006 L 260.29618,319.83124 L 255.46038,319.83124 L 255.90838,317.31382"
           id="path2504"
           style="fill:#2ea539;fill-opacity:1;fill-rule:nonzero;stroke:none" />
        <path
           d="M 278.65058,308.16148 C 281.09688,309.46997 284.08368,310.79269 283.48628,314.16348 C 282.74678,318.4303 278.54388,320.30059 272.79788,320.30059 C 269.32048,320.30059 267.16568,319.73879 266.08478,319.49701 L 266.68218,316.12622 C 267.13728,316.29689 270.22358,317.31382 272.90458,317.31382 C 275.20868,317.31382 278.18838,316.8018 278.56528,314.71816 C 278.83548,313.18922 276.62388,312.33586 275.06648,311.43271 L 272.81218,310.24511 C 270.70718,309.09307 268.16128,307.72769 268.69468,304.74802 C 269.33468,301.07855 273.44508,299.07315 278.75018,299.07315 C 281.32448,299.07315 283.20898,299.62072 284.41788,299.80562 L 283.80638,303.24752 C 283.15918,302.99151 280.95468,302.05992 278.17408,302.05992 C 276.07628,302.05992 273.82198,302.94884 273.60148,304.22889 C 273.35258,305.64405 275.25848,306.40497 276.78028,307.21567 L 278.65058,308.16148"
           id="path2508"
           style="fill:#2ea539;fill-opacity:1;fill-rule:nonzero;stroke:none" />
        <path
           d="M 319.19958,305.64405 C 319.42008,304.3569 318.87248,302.05992 315.16748,302.05992 C 311.19938,302.05992 309.60638,304.74802 309.44278,305.64405 L 319.19958,305.64405 z M 320.97748,319.6179 C 318.81558,320.00191 317.25818,320.30059 314.47058,320.30059 C 306.74758,320.30059 302.45948,316.67379 303.86038,308.70906 C 305.38938,300.01896 312.68558,299.07315 315.96398,299.07315 C 322.18638,299.07315 324.59008,302.43683 323.75088,307.21567 L 323.58028,308.20415 L 308.77438,308.20415 C 308.11298,311.99451 309.58508,317.31382 316.54708,317.31382 C 318.75158,317.31382 320.33038,316.89424 321.51078,316.59557 L 320.97748,319.6179"
           id="path2512"
           style="fill:#2ea539;fill-opacity:1;fill-rule:nonzero;stroke:none" />
        <path
           d="M 331.10408,299.54961 L 335.93268,299.54961 L 335.21448,303.63154 L 335.32108,303.63154 C 336.30248,302.01726 338.96208,299.07315 344.01118,299.07315 L 343.27158,303.24752 C 338.92658,303.24752 334.97268,304.98981 333.87748,311.22648 L 332.34858,319.83124 L 327.52708,319.83124 L 331.10408,299.54961"
           id="path2516"
           style="fill:#2ea539;fill-opacity:1;fill-rule:nonzero;stroke:none" />
        <path
           d="M 356.02228,308.16148 C 358.46858,309.46997 361.45538,310.79269 360.86518,314.16348 C 360.11138,318.4303 355.92278,320.30059 350.18388,320.30059 C 346.69928,320.30059 344.53748,319.73879 343.45648,319.49701 L 344.05388,316.12622 C 344.50898,316.29689 347.58818,317.31382 350.28348,317.31382 C 352.58748,317.31382 355.57428,316.8018 355.94408,314.71816 C 356.21428,313.18922 354.00268,312.33586 352.44528,311.43271 L 350.19098,310.24511 C 348.08598,309.09307 345.54018,307.72769 346.06638,304.74802 C 346.71348,301.07855 350.81678,299.07315 356.12898,299.07315 C 358.69618,299.07315 360.58068,299.62072 361.78968,299.80562 L 361.17808,303.24752 C 360.52378,302.99151 358.32638,302.05992 355.53878,302.05992 C 353.44798,302.05992 351.20788,302.94884 350.98038,304.22889 C 350.73148,305.64405 352.63018,306.40497 354.15908,307.21567 L 356.02228,308.16148"
           id="path2520"
           style="fill:#2ea539;fill-opacity:1;fill-rule:nonzero;stroke:none" />
        <path
           d="M 378.75738,320.00191 C 377.49158,320.21525 376.19018,320.30059 374.90298,320.30059 C 368.73748,320.30059 367.62098,318.12451 368.10448,315.3653 L 370.37308,302.52216 L 365.81468,302.52216 L 366.33378,299.54961 L 370.89928,299.54961 L 371.73848,294.77077 L 376.97948,292.38135 L 375.72078,299.54961 L 382.80378,299.54961 L 382.27038,302.52216 L 375.19458,302.52216 L 373.28868,313.35989 C 372.96868,315.18751 372.91178,317.31382 376.65948,317.31382 C 377.51998,317.31382 378.55828,317.18581 379.29068,317.02225 L 378.75738,320.00191"
           id="path2524"
           style="fill:#2ea539;fill-opacity:1;fill-rule:nonzero;stroke:none" />
        <path
           d="M 399.57948,305.64405 C 399.79988,304.3569 399.24518,302.05992 395.55438,302.05992 C 391.57918,302.05992 389.97908,304.74802 389.82268,305.64405 L 399.57948,305.64405 z M 401.35728,319.6179 C 399.18838,320.00191 397.64518,320.30059 394.85038,320.30059 C 387.12748,320.30059 382.83218,316.67379 384.23308,308.70906 C 385.77628,300.01896 393.07258,299.07315 396.35088,299.07315 C 402.56628,299.07315 404.96988,302.43683 404.13788,307.21567 L 403.96718,308.20415 L 389.15418,308.20415 C 388.49288,311.99451 389.95778,317.31382 396.93398,317.31382 C 399.13148,317.31382 400.71728,316.89424 401.89068,316.59557 L 401.35728,319.6179"
           id="path2528"
           style="fill:#2ea539;fill-opacity:1;fill-rule:nonzero;stroke:none" />
        <path
           d="M 429.29078,290.42572 L 434.65988,290.42572 L 429.46858,319.83124 L 424.10658,319.83124 L 429.29078,290.42572"
           id="path2532"
           style="fill:#2ea539;fill-opacity:1;fill-rule:nonzero;stroke:none" />
        <path
           d="M 441.25208,299.54961 L 446.08068,299.54961 L 445.30558,303.88755 L 445.41228,303.88755 C 446.57138,302.18082 449.15998,299.07315 454.35838,299.07315 C 460.26788,299.07315 460.48838,303.24752 460.04748,305.77206 L 457.57268,319.83124 L 452.73698,319.83124 L 454.69258,308.75884 C 455.35398,304.98981 455.72378,302.90618 452.22498,302.90618 C 448.27098,302.90618 444.72958,307.173 444.01128,311.22648 L 442.50368,319.83124 L 437.67508,319.83124 L 441.25208,299.54961"
           id="path2536"
           style="fill:#2ea539;fill-opacity:1;fill-rule:nonzero;stroke:none" />
        <path
           d="M 479.04188,320.00191 C 477.76188,320.21525 476.46758,320.30059 475.18048,320.30059 C 469.00068,320.30059 467.89128,318.12451 468.37488,315.3653 L 470.64338,302.52216 L 466.07788,302.52216 L 466.61128,299.54961 L 471.16968,299.54961 L 472.00168,294.77077 L 477.26408,292.38135 L 475.99828,299.54961 L 483.08118,299.54961 L 482.54068,302.52216 L 475.47908,302.52216 L 473.56618,313.35989 C 473.23908,315.18751 473.18928,317.31382 476.92988,317.31382 C 477.79028,317.31382 478.84278,317.18581 479.56108,317.02225 L 479.04188,320.00191"
           id="path2540"
           style="fill:#2ea539;fill-opacity:1;fill-rule:nonzero;stroke:none" />
        <path
           d="M 499.85688,305.64405 C 500.08448,304.3569 499.52268,302.05992 495.81768,302.05992 C 491.84238,302.05992 490.25658,304.74802 490.09298,305.64405 L 499.85688,305.64405 z M 501.62768,319.6179 C 499.45868,320.00191 497.91548,320.30059 495.12788,320.30059 C 487.41198,320.30059 483.10958,316.67379 484.51768,308.70906 C 486.04658,300.01896 493.34288,299.07315 496.62128,299.07315 C 502.83658,299.07315 505.24018,302.43683 504.40108,307.21567 L 504.23038,308.20415 L 489.43168,308.20415 C 488.76318,311.99451 490.23518,317.31382 497.21148,317.31382 C 499.41598,317.31382 500.97338,316.89424 502.15388,316.59557 L 501.62768,319.6179"
           id="path2544"
           style="fill:#2ea539;fill-opacity:1;fill-rule:nonzero;stroke:none" />
        <path
           d="M 511.76848,299.54961 L 516.58998,299.54961 L 515.87168,303.63154 L 515.97128,303.63154 C 516.95978,302.01726 519.61938,299.07315 524.65428,299.07315 L 523.91468,303.24752 C 519.58388,303.24752 515.62988,304.98981 514.52768,311.22648 L 513.02008,319.83124 L 508.18428,319.83124 L 511.76848,299.54961"
           id="path2548"
           style="fill:#2ea539;fill-opacity:1;fill-rule:nonzero;stroke:none" />
        <path
           d="M 529.62508,299.54961 L 534.44658,299.54961 L 533.67858,303.88755 L 533.77818,303.88755 C 534.94438,302.18082 537.52588,299.07315 542.73848,299.07315 C 548.63378,299.07315 548.86138,303.24752 548.41338,305.77206 L 545.93858,319.83124 L 541.10998,319.83124 L 543.06558,308.75884 C 543.71988,304.98981 544.09678,302.90618 540.59798,302.90618 C 536.63688,302.90618 533.10258,307.173 532.38428,311.22648 L 530.86958,319.83124 L 526.03388,319.83124 L 529.62508,299.54961"
           id="path2552"
           style="fill:#2ea539;fill-opacity:1;fill-rule:nonzero;stroke:none" />
        <path
           d="M 569.34918,305.64405 C 569.58388,304.3569 569.01498,302.05992 565.32418,302.05992 C 561.34898,302.05992 559.74178,304.74802 559.59238,305.64405 L 569.34918,305.64405 z M 571.12708,319.6179 C 568.95098,320.00191 567.40778,320.30059 564.62728,320.30059 C 556.90428,320.30059 552.60198,316.67379 554.00998,308.70906 C 555.53898,300.01896 562.84948,299.07315 566.10648,299.07315 C 572.33598,299.07315 574.74678,302.43683 573.89338,307.21567 L 573.72988,308.20415 L 558.92398,308.20415 C 558.26258,311.99451 559.73468,317.31382 566.70378,317.31382 C 568.90828,317.31382 570.47278,316.89424 571.65328,316.59557 L 571.12708,319.6179"
           id="path2556"
           style="fill:#2ea539;fill-opacity:1;fill-rule:nonzero;stroke:none" />
        <path
           d="M 591.21668,320.00191 C 589.95088,320.21525 588.64238,320.30059 587.36238,320.30059 C 581.18258,320.30059 580.07318,318.12451 580.55678,315.3653 L 582.82528,302.52216 L 578.25268,302.52216 L 578.79308,299.54961 L 583.35148,299.54961 L 584.19778,294.77077 L 589.43888,292.38135 L 588.16588,299.54961 L 595.24888,299.54961 L 594.72258,302.52216 L 587.63968,302.52216 L 585.73378,313.35989 C 585.42088,315.18751 585.35688,317.31382 589.12598,317.31382 C 589.96508,317.31382 591.01048,317.18581 591.73578,317.02225 L 591.21668,320.00191"
           id="path2560"
           style="fill:#2ea539;fill-opacity:1;fill-rule:nonzero;stroke:none" />
        <path
           d="M 606.10788,317.31382 C 610.35338,317.31382 612.03878,313.51634 612.70018,309.77576 C 613.21928,306.83165 613.42548,302.05992 609.39338,302.05992 C 605.42518,302.05992 603.13538,306.87432 602.63048,309.64065 C 602.08288,312.79809 601.39308,317.31382 606.10788,317.31382 z M 603.93178,302.31593 L 604.03848,302.31593 C 604.82078,301.19945 607.18168,299.07315 611.26368,299.07315 C 618.34658,299.07315 618.96528,304.57024 618.04078,309.90377 C 616.92428,316.16177 613.26198,320.30059 605.85188,320.30059 C 596.25868,320.30059 597.04798,313.99992 597.49608,311.43271 L 601.20818,290.42572 L 606.02258,290.42572 L 603.93178,302.31593"
           id="path2564"
           style="fill:#2ea539;fill-opacity:1;fill-rule:nonzero;stroke:none" />
        <path
           d="M 635.25738,310.75713 C 631.45998,310.75713 627.40648,312.12251 626.94418,314.71816 C 626.68108,316.29689 627.83318,317.31382 629.26968,317.31382 C 632.60488,317.31382 635.60588,314.29859 636.02548,311.90206 L 636.23168,310.75713 L 635.25738,310.75713 z M 635.07248,317.31382 L 634.96588,317.31382 C 634.12668,318.4303 631.75858,320.30059 627.83318,320.30059 C 623.06848,320.30059 620.99908,317.99651 621.56798,314.84617 C 622.49958,309.46997 630.19408,308.20415 636.67968,308.20415 L 637.29128,304.66269 C 637.22018,302.69995 635.66278,302.05992 633.84938,302.05992 C 630.94078,302.05992 629.51138,303.55331 629.22698,305.16759 L 624.12808,305.16759 C 624.68988,301.92481 627.61268,299.07315 634.73828,299.07315 C 643.10838,299.07315 642.23368,304.06533 641.90658,305.90006 L 639.45308,319.83124 L 634.61738,319.83124 L 635.07248,317.31382"
           id="path2568"
           style="fill:#2ea539;fill-opacity:1;fill-rule:nonzero;stroke:none" />
        <path
           d="M 650.76018,299.54961 L 655.56748,299.54961 L 654.80658,303.88755 L 654.91328,303.88755 C 656.07238,302.18082 658.66808,299.07315 663.87358,299.07315 C 669.76888,299.07315 669.98228,303.24752 669.54848,305.77206 L 667.08078,319.83124 L 662.24508,319.83124 L 664.20068,308.75884 C 664.85498,304.98981 665.23188,302.90618 661.74018,302.90618 C 657.77918,302.90618 654.23768,307.173 653.51938,311.22648 L 652.00468,319.83124 L 647.17608,319.83124 L 650.76018,299.54961"
           id="path2572"
           style="fill:#2ea539;fill-opacity:1;fill-rule:nonzero;stroke:none" />
        <path
           d="M 680.19418,290.42572 L 685.02988,290.42572 L 681.97908,307.64235 L 692.31198,299.54961 L 698.37088,299.54961 L 687.36958,308.40327 L 695.71118,319.83124 L 689.63808,319.83124 L 681.78708,309.34197 L 681.68048,309.34197 L 679.82438,319.83124 L 675.00998,319.83124 L 680.19418,290.42572"
           id="path2576"
           style="fill:#2ea539;fill-opacity:1;fill-rule:nonzero;stroke:none" />
      </g>
    </g>
  </g>
</svg>
